<svg id="Лого" xmlns="http://www.w3.org/2000/svg" width="63" height="77" viewBox="0 0 63 77">
  <defs>
    <style>
      .cls-1, .cls-2 {
        fill: #261c04;
      }

      .cls-1, .cls-3, .cls-4 {
        fill-rule: evenodd;
      }

      .cls-3, .cls-4, .cls-6 {
        fill: #fff;
      }

      .cls-4 {
        stroke: #261c04;
        stroke-linejoin: round;
        stroke-width: 2px;
      }

      .cls-5 {
        fill: #fbb406;
      }
    </style>
  </defs>
  <path id="Фигура_4_копия_2" data-name="Фигура 4 копия 2" class="cls-1" d="M758.176,317.143s-0.686,10.392,3.843,10.843c3.467,0.346,4.942-8,4.942-8Z" transform="translate(-738 -251)"/>
  <circle id="Эллипс_2_копия_2" data-name="Эллипс 2 копия 2" class="cls-2" cx="8.719" cy="8.61" r="8.719"/>
  <path id="Фигура_4_копия_2-2" data-name="Фигура 4 копия 2" class="cls-1" d="M781.63,315.573s3.551,9.96-.57,11.5c-3.357,1.251-7.944-6.988-7.944-6.988Z" transform="translate(-738 -251)"/>
  <ellipse id="Эллипс_2_копия_2-2" data-name="Эллипс 2 копия 2" class="cls-2" cx="54.282" cy="9.14" rx="8.719" ry="8.609"/>
  <ellipse id="Эллипс_1_копия" data-name="Эллипс 1 копия" class="cls-2" cx="31.5" cy="25.281" rx="31.5" ry="25.281"/>
  <path id="Эллипс_1_копия_2" data-name="Эллипс 1 копия 2" class="cls-3" d="M769.5,255c15.74,0,28.5,10.968,28.5,24.5,0,18.52-12.76,24.5-28.5,24.5s-28.5-6.5-28.5-24.5C741,265.966,753.76,255,769.5,255Z" transform="translate(-738 -251)"/>
  <path id="Фигура_2_копия" data-name="Фигура 2 копия" class="cls-1" d="M757,308l-3.49-7.934s-1.932-4.721.137-6.1c3.66-2.44,9.1,6.228,9.608,6.184a89.277,89.277,0,0,0,20.588-.9l5.765,4.88a4.506,4.506,0,0,1,1.647,4.879C790.431,312.263,782,309,782,309a32.011,32.011,0,0,0-12-3A37.175,37.175,0,0,0,757,308Z" transform="translate(-738 -251)"/>
  <path id="Фигура_3_копия" data-name="Фигура 3 копия" class="cls-4" d="M757.392,307.384a32.62,32.62,0,0,1,13.137-2.44,22.482,22.482,0,0,1,13.177,4.066,12.791,12.791,0,0,1-.412,6.236,8.274,8.274,0,0,1-5.078,4.743,9.6,9.6,0,0,1-4.53.271h-7.137a10.915,10.915,0,0,1-4.392-.135,6.888,6.888,0,0,1-4.628-4.879C756.8,312.625,757.392,307.384,757.392,307.384Z" transform="translate(-738 -251)"/>
  <ellipse id="Эллипс_4_копия_3" data-name="Эллипс 4 копия 3" class="cls-2" cx="31.844" cy="29.485" rx="2.344" ry="1.297"/>
  <ellipse id="Эллипс_4_копия_3-2" data-name="Эллипс 4 копия 3" class="cls-5" cx="13.938" cy="39.86" rx="3.218" ry="1.766"/>
  <ellipse id="Эллипс_4_копия_3-3" data-name="Эллипс 4 копия 3" class="cls-5" cx="51.125" cy="39.86" rx="3.219" ry="1.766"/>
  <path id="Прямоугольник_скругл._углы_1_копия" data-name="Прямоугольник, скругл. углы 1 копия" class="cls-1" d="M766.574,287.2a5.466,5.466,0,0,0,7.087,0,0.518,0.518,0,0,1,.753.037,0.676,0.676,0,0,1-.185.883,6.344,6.344,0,0,1-8.223,0,0.676,0.676,0,0,1-.185-0.883A0.518,0.518,0,0,1,766.574,287.2Z" transform="translate(-738 -251)"/>
  <path id="Фигура_1_копия_2" data-name="Фигура 1 копия 2" class="cls-1" d="M745,277.7s2.47-8.742,10.019-8.539c8.3,1.22,6.863,10.843,6.863,10.843s-1.372,9.827-11.667,6.777C743.01,283.529,745,277.7,745,277.7Z" transform="translate(-738 -251)"/>
  <path id="Фигура_1_копия_2-2" data-name="Фигура 1 копия 2" class="cls-1" d="M795.1,277.7s-2.471-8.742-10.02-8.539c-8.3,1.22-6.862,10.843-6.862,10.843s1.372,9.827,11.666,6.777C797.088,283.529,795.1,277.7,795.1,277.7Z" transform="translate(-738 -251)"/>
  <circle id="Эллипс_3_копия_2" data-name="Эллипс 3 копия 2" class="cls-6" cx="20.594" cy="26.703" r="1.781"/>
  <circle id="Эллипс_3_копия_2-2" data-name="Эллипс 3 копия 2" class="cls-6" cx="43.657" cy="26.703" r="1.781"/>
</svg>
