<svg id="Группа_3" data-name="Группа 3" xmlns="http://www.w3.org/2000/svg" width="59" height="59" viewBox="0 0 59 59">
  <defs>
    <style>
      .cls-1 {
        fill: #fb0;
        stroke: #261c04;
        stroke-linejoin: round;
        stroke-width: 4px;
      }

      .cls-1, .cls-2, .cls-3 {
        fill-rule: evenodd;
      }

      .cls-2 {
        fill: #ffd324;
      }

      .cls-3 {
        fill: #261c04;
      }
    </style>
  </defs>
  <path id="Forma_1_копия_5" data-name="Forma 1 копия 5" class="cls-1" d="M1110.58,515.75l-5.92-3.417-3.41-5.916h-6.83L1088.5,503l-5.92,3.416h-6.83l-3.42,5.917-5.91,3.416v6.831L1063,528.5l3.42,5.917v6.832l5.92,3.416,3.41,5.916h6.83L1088.5,554l5.92-3.416h6.83l3.41-5.917,5.92-3.417v-6.831L1114,528.5l-3.42-5.916V515.75h0Z" transform="translate(-1059 -499)"/>
  <path id="Фигура_11" data-name="Фигура 11" class="cls-2" d="M1068,517s11.5,1.75,19,11a32.375,32.375,0,0,1,7,20l-6,4-5-3h-6a13.672,13.672,0,0,0-9-9v-7l-3-5,3-5v-6Z" transform="translate(-1059 -499)"/>
  <path id="Forma_1_копия_11" data-name="Forma 1 копия 11" class="cls-3" d="M1087.65,534.555a1.331,1.331,0,0,1-1,.44,1.3,1.3,0,0,1-.99-0.44l-4.3-4.7a1.608,1.608,0,0,1,0-2.134l1.14-1.246a1.3,1.3,0,0,1,1.95,0l2.2,2.413,6.85-7.493a1.3,1.3,0,0,1,1.95,0l1.14,1.245a1.609,1.609,0,0,1,0,2.135Z" transform="translate(-1059 -499)"/>
</svg>
