<svg id="Группа_4" data-name="Группа 4" xmlns="http://www.w3.org/2000/svg" width="58" height="63.75" viewBox="0 0 58 63.75">
  <defs>
    <style>
      .cls-1 {
        fill: #fb0;
      }

      .cls-1, .cls-2, .cls-3 {
        fill-rule: evenodd;
      }

      .cls-2 {
        fill: #261c04;
      }

      .cls-3 {
        fill: #ffd324;
      }

      .cls-4 {
        fill: #ebb00d;
      }
    </style>
  </defs>
  <path id="Forma_1" data-name="Forma 1" class="cls-1" d="M1275.5,529.99a6.7,6.7,0,0,1-.46-3.31,7.671,7.671,0,0,1,1.33-3.636l3.43,1.869-0.48.794a5.78,5.78,0,0,0-.32,1.071,7.005,7.005,0,0,0,0,1.122,5.929,5.929,0,0,0,.29,1.009,7.669,7.669,0,0,0,.57.9c0.16,0.171.32,0.333,0.49,0.488l0.06-.1a20.5,20.5,0,0,1,5.57-6.362,29.535,29.535,0,0,1,17.98-5.745,32.027,32.027,0,0,1,5.8.523,12.667,12.667,0,0,1,5.44-3.077,22.476,22.476,0,0,1,6.38-.847,25.636,25.636,0,0,1,3.64.243l2.29,0.365-3.54,10.822a19.694,19.694,0,0,1,2.41,3.26l6.62,1.741v14.009l-6.63,1.741a20.584,20.584,0,0,1-5.7,6.2l1.07,7.557h-14.57l-1.87-2.5c-0.44.017-.89,0.027-1.34,0.027a32.817,32.817,0,0,1-5.69-.494l-2.08,2.963h-14.61l1.54-10.829a19.015,19.015,0,0,1-3.34-4.994,16.231,16.231,0,0,1-1.45-6.68,15.824,15.824,0,0,1,.57-4.222,8.054,8.054,0,0,1-1.36-.987A8.149,8.149,0,0,1,1275.5,529.99Z" transform="translate(-1275 -496.875)"/>
  <path id="Forma_1_копия_2" data-name="Forma 1 копия 2" class="cls-2" d="M1275.5,529.99a6.7,6.7,0,0,1-.46-3.31,7.671,7.671,0,0,1,1.33-3.636l3.43,1.869-0.48.794a5.78,5.78,0,0,0-.32,1.071,7.005,7.005,0,0,0,0,1.122,5.929,5.929,0,0,0,.29,1.009,7.669,7.669,0,0,0,.57.9c0.16,0.171.32,0.333,0.49,0.488l0.06-.1a20.5,20.5,0,0,1,5.57-6.362,29.535,29.535,0,0,1,17.98-5.745,32.027,32.027,0,0,1,5.8.523,12.667,12.667,0,0,1,5.44-3.077,22.476,22.476,0,0,1,6.38-.847,25.636,25.636,0,0,1,3.64.243l2.29,0.365-3.54,10.822a19.694,19.694,0,0,1,2.41,3.26l6.62,1.741v14.009l-6.63,1.741a20.584,20.584,0,0,1-5.7,6.2l1.07,7.557h-14.57l-1.87-2.5c-0.44.017-.89,0.027-1.34,0.027a32.817,32.817,0,0,1-5.69-.494l-2.08,2.963h-14.61l1.54-10.829a19.015,19.015,0,0,1-3.34-4.994,16.231,16.231,0,0,1-1.45-6.68,15.824,15.824,0,0,1,.57-4.222,8.054,8.054,0,0,1-1.36-.987A8.149,8.149,0,0,1,1275.5,529.99Zm11.26,17.883,0.66,0.659-1.17,8.276h7.73l2.43-3.454,1.4,0.314a28.172,28.172,0,0,0,6.15.672c0.73,0,1.47-.029,2.19-0.085l1.17-.09,1.99,2.643h7.77l-0.78-5.507,1.02-.664a16.881,16.881,0,0,0,5.81-6.217l0.4-.77,5.38-1.413v-8.23l-5.38-1.415-0.4-.768a15.686,15.686,0,0,0-2.94-3.921l-0.82-.808,2.81-8.586q-0.285-.007-0.6-0.008a18.451,18.451,0,0,0-5.14.667,8.122,8.122,0,0,0-4.25,2.672l-0.8,1.045-1.34-.308a27.306,27.306,0,0,0-6.09-.675c-11.88,0-21.54,7.276-21.54,16.219A13.69,13.69,0,0,0,1286.76,547.873Zm29.23-17.753a1.943,1.943,0,1,0,2.07,1.939A2.012,2.012,0,0,0,1315.99,530.12Zm-9.17-5.8-0.9,3.722a16.323,16.323,0,0,0-3.52-.219,13.422,13.422,0,0,0-6.92,2.073l-2.4-3.087C1299.07,522.749,1306.51,524.255,1306.82,524.32Z" transform="translate(-1275 -496.875)"/>
  <path id="Фигура_12" data-name="Фигура 12" class="cls-3" d="M1284,533s7-.8,15,6,11,18,11,18l-3-3h-10l-3,3h-8l1-9C1279.62,543.125,1284,533,1284,533Z" transform="translate(-1275 -496.875)"/>
  <ellipse id="Эллипс_6" data-name="Эллипс 6" class="cls-4" cx="24.5" cy="7.031" rx="7.5" ry="7.031"/>
</svg>
