<svg id="Группа_6_копия" data-name="Группа 6 копия" xmlns="http://www.w3.org/2000/svg" width="77" height="83" viewBox="0 0 77 83">
  <defs>
    <style>
      .cls-1 {
        fill: #ffc000;
      }

      .cls-2 {
        fill: #f3af0d;
      }

      .cls-2, .cls-3, .cls-4 {
        fill-rule: evenodd;
      }

      .cls-3 {
        fill: #fff;
        opacity: 0.14;
      }

      .cls-4 {
        fill: #261c04;
      }

      .cls-5 {
        fill: #ffd200;
      }
    </style>
  </defs>
  <circle id="Эллипс_9" data-name="Эллипс 9" class="cls-1" cx="38" cy="41" r="35"/>
  <path id="Эллипс_9_копия" data-name="Эллипс 9 копия" class="cls-2" d="M604.741,270.318c15.137,19.818.854,58.675-33.981,53.925C552.725,299.51,574.938,265.709,604.741,270.318Z" transform="translate(-538 -249)"/>
  <path id="Эллипс_9_копия_4" data-name="Эллипс 9 копия 4" class="cls-3" d="M611,293c-3.406,7.087-54.983,22.791-59-27C558.3,252.1,610.318,243.214,611,293Z" transform="translate(-538 -249)"/>
  <path id="Forma_1_копия_11" data-name="Forma 1 копия 11" class="cls-4" d="M574.345,302.178a2.83,2.83,0,0,1-3.97,0l-8.58-8.709a2.825,2.825,0,0,1,0-3.952l2.272-2.305a2.723,2.723,0,0,1,3.893,0l4.4,4.466,13.665-13.871a2.723,2.723,0,0,1,3.893,0l2.271,2.3a2.826,2.826,0,0,1,0,3.952Z" transform="translate(-538 -249)"/>
  <circle id="Эллипс_9_копия_2" data-name="Эллипс 9 копия 2" class="cls-5" cx="5" cy="78" r="5"/>
  <circle id="Эллипс_9_копия_3" data-name="Эллипс 9 копия 3" class="cls-5" cx="72" cy="5" r="5"/>
</svg>
