<svg id="Группа_1" data-name="Группа 1" xmlns="http://www.w3.org/2000/svg" width="62" height="54" viewBox="0 0 62 54">
  <defs>
    <style>
      .cls-1 {
        fill: #fb0;
        stroke: #261c04;
        stroke-linejoin: round;
        stroke-width: 4px;
      }

      .cls-1, .cls-2, .cls-3 {
        fill-rule: evenodd;
      }

      .cls-2 {
        fill: #ffd324;
      }

      .cls-3 {
        fill: #261c04;
      }
    </style>
  </defs>
  <path id="Forma_1" data-name="Forma 1" class="cls-1" d="M690.933,513.242a1.236,1.236,0,0,0-.644-0.708l-10.295-4.756a49.872,49.872,0,0,0-6.674-1.757,1.187,1.187,0,0,0-.236-0.023,1.209,1.209,0,0,0-1.181.951c-0.823,3.623-4.029,5.336-7.9,5.336s-7.081-1.712-7.9-5.336a1.212,1.212,0,0,0-1.182-.951,1.194,1.194,0,0,0-.236.023A50.113,50.113,0,0,0,648,507.778l-10.292,4.756a1.212,1.212,0,0,0-.641.708,1.2,1.2,0,0,0,.064.953l4.47,8.826a1.212,1.212,0,0,0,1.435.618L648,522.167v24.612c0-3.705-1.74,5.221,15,5.221,19.409,0,16.994-8.926,16.994-5.221V522.167l4.968,1.473a1.216,1.216,0,0,0,1.435-.619l4.471-8.825A1.227,1.227,0,0,0,690.933,513.242Z" transform="translate(-633 -502)"/>
  <path id="Фигура_9" data-name="Фигура 9" class="cls-2" d="M653,548s-2.2-13,7-23,26-6,26-6l-1,3c-4.875-2-7-.063-7,0v24C663.625,552.625,653,548,653,548Z" transform="translate(-633 -502)"/>
  <path id="Forma_1_копия_12" data-name="Forma 1 копия 12" class="cls-3" d="M663.648,538.555a1.345,1.345,0,0,1-1.99,0l-4.3-4.7a1.612,1.612,0,0,1,0-2.135l1.138-1.245a1.3,1.3,0,0,1,1.952,0l2.206,2.412,6.85-7.493a1.3,1.3,0,0,1,1.952,0l1.138,1.245a1.612,1.612,0,0,1,0,2.135Z" transform="translate(-633 -502)"/>
</svg>
